<mxfile host="app.diagrams.net" agent="Mozilla/5.0 (Windows NT 10.0; Win64; x64) AppleWebKit/537.36 (KHTML, like Gecko) Chrome/135.0.0.0 Safari/537.36 Edg/135.0.0.0" version="26.2.13">
  <diagram name="Страница — 1" id="UX9Cjsm62VkCAgzb9Dnp">
    <mxGraphModel dx="1172" dy="615" grid="1" gridSize="10" guides="1" tooltips="1" connect="1" arrows="1" fold="1" page="1" pageScale="1" pageWidth="3300" pageHeight="2339" math="0" shadow="0">
      <root>
        <mxCell id="0" />
        <mxCell id="1" parent="0" />
        <mxCell id="cZ6YBLn97wVf9UVjXB-H-1" value="" style="rounded=0;whiteSpace=wrap;html=1;" parent="1" vertex="1">
          <mxGeometry x="120" y="40" width="600" height="410" as="geometry" />
        </mxCell>
        <mxCell id="cZ6YBLn97wVf9UVjXB-H-2" value="" style="endArrow=none;dashed=1;html=1;rounded=0;dashPattern=12 12;opacity=30;" parent="1" edge="1">
          <mxGeometry width="50" height="50" relative="1" as="geometry">
            <mxPoint y="50" as="sourcePoint" />
            <mxPoint x="730" y="50" as="targetPoint" />
          </mxGeometry>
        </mxCell>
        <mxCell id="cZ6YBLn97wVf9UVjXB-H-3" value="Слой&lt;div&gt;представления&lt;/div&gt;" style="text;html=1;align=center;verticalAlign=middle;whiteSpace=wrap;rounded=0;" parent="1" vertex="1">
          <mxGeometry x="30" y="60" width="60" height="30" as="geometry" />
        </mxCell>
        <mxCell id="cZ6YBLn97wVf9UVjXB-H-4" value="" style="rounded=0;whiteSpace=wrap;html=1;fillColor=#f5f5f5;fontColor=#333333;strokeColor=#666666;" parent="1" vertex="1">
          <mxGeometry x="130" y="60" width="580" height="80" as="geometry" />
        </mxCell>
        <mxCell id="cZ6YBLn97wVf9UVjXB-H-5" value="Взаимодействие с пользователем" style="text;html=1;align=center;verticalAlign=middle;whiteSpace=wrap;rounded=0;" parent="1" vertex="1">
          <mxGeometry x="295" y="60" width="230" height="30" as="geometry" />
        </mxCell>
        <mxCell id="cZ6YBLn97wVf9UVjXB-H-6" value="" style="endArrow=none;dashed=1;html=1;rounded=0;dashPattern=12 12;strokeWidth=1;jumpSize=6;opacity=30;" parent="1" edge="1">
          <mxGeometry width="50" height="50" relative="1" as="geometry">
            <mxPoint y="150" as="sourcePoint" />
            <mxPoint x="740" y="150" as="targetPoint" />
          </mxGeometry>
        </mxCell>
        <mxCell id="cZ6YBLn97wVf9UVjXB-H-7" value="Слой&lt;div&gt;бизнес-логики&lt;/div&gt;" style="text;html=1;align=center;verticalAlign=middle;whiteSpace=wrap;rounded=0;" parent="1" vertex="1">
          <mxGeometry x="10" y="170" width="100" height="30" as="geometry" />
        </mxCell>
        <mxCell id="cZ6YBLn97wVf9UVjXB-H-8" value="" style="rounded=0;whiteSpace=wrap;html=1;fillColor=#f5f5f5;fontColor=#333333;strokeColor=#666666;" parent="1" vertex="1">
          <mxGeometry x="140" y="160" width="570" height="100" as="geometry" />
        </mxCell>
        <mxCell id="cZ6YBLn97wVf9UVjXB-H-9" value="Обработка изображения" style="text;html=1;align=center;verticalAlign=middle;whiteSpace=wrap;rounded=0;" parent="1" vertex="1">
          <mxGeometry x="295" y="160" width="230" height="30" as="geometry" />
        </mxCell>
        <mxCell id="MCCsowOXcGhfkj3BE8WT-15" style="edgeStyle=orthogonalEdgeStyle;rounded=0;orthogonalLoop=1;jettySize=auto;html=1;exitX=0;exitY=0.5;exitDx=0;exitDy=0;entryX=1;entryY=0.5;entryDx=0;entryDy=0;" edge="1" parent="1" source="cZ6YBLn97wVf9UVjXB-H-10" target="MCCsowOXcGhfkj3BE8WT-8">
          <mxGeometry relative="1" as="geometry" />
        </mxCell>
        <mxCell id="cZ6YBLn97wVf9UVjXB-H-10" value="Модуль астрономической калибровки" style="rounded=0;whiteSpace=wrap;html=1;" parent="1" vertex="1">
          <mxGeometry x="349" y="200" width="169.38" height="30" as="geometry" />
        </mxCell>
        <mxCell id="cZ6YBLn97wVf9UVjXB-H-12" value="" style="endArrow=none;dashed=1;html=1;rounded=0;dashPattern=12 12;opacity=30;" parent="1" edge="1">
          <mxGeometry width="50" height="50" relative="1" as="geometry">
            <mxPoint y="272.16" as="sourcePoint" />
            <mxPoint x="730" y="272.16" as="targetPoint" />
          </mxGeometry>
        </mxCell>
        <mxCell id="cZ6YBLn97wVf9UVjXB-H-13" value="Слой&lt;div&gt;доступа к данным&lt;/div&gt;" style="text;html=1;align=center;verticalAlign=middle;whiteSpace=wrap;rounded=0;" parent="1" vertex="1">
          <mxGeometry x="10" y="280" width="105" height="30" as="geometry" />
        </mxCell>
        <mxCell id="cZ6YBLn97wVf9UVjXB-H-16" value="" style="rounded=0;whiteSpace=wrap;html=1;fillColor=#f5f5f5;fontColor=#333333;strokeColor=#666666;" parent="1" vertex="1">
          <mxGeometry x="135" y="280" width="570" height="100" as="geometry" />
        </mxCell>
        <mxCell id="MCCsowOXcGhfkj3BE8WT-9" style="edgeStyle=orthogonalEdgeStyle;rounded=0;orthogonalLoop=1;jettySize=auto;html=1;exitX=0;exitY=0.5;exitDx=0;exitDy=0;entryX=1;entryY=0.5;entryDx=0;entryDy=0;startArrow=classic;startFill=1;" edge="1" parent="1" source="cZ6YBLn97wVf9UVjXB-H-20" target="MCCsowOXcGhfkj3BE8WT-1">
          <mxGeometry relative="1" as="geometry" />
        </mxCell>
        <mxCell id="MCCsowOXcGhfkj3BE8WT-13" style="edgeStyle=orthogonalEdgeStyle;rounded=0;orthogonalLoop=1;jettySize=auto;html=1;exitX=0.75;exitY=1;exitDx=0;exitDy=0;entryX=0.75;entryY=0;entryDx=0;entryDy=0;" edge="1" parent="1" source="cZ6YBLn97wVf9UVjXB-H-20" target="MCCsowOXcGhfkj3BE8WT-7">
          <mxGeometry relative="1" as="geometry">
            <Array as="points">
              <mxPoint x="652" y="120" />
              <mxPoint x="652" y="160" />
            </Array>
          </mxGeometry>
        </mxCell>
        <mxCell id="cZ6YBLn97wVf9UVjXB-H-20" value="Модуль загрузки изображения" style="rounded=0;whiteSpace=wrap;html=1;" parent="1" vertex="1">
          <mxGeometry x="465" y="90" width="235" height="30" as="geometry" />
        </mxCell>
        <mxCell id="cZ6YBLn97wVf9UVjXB-H-26" value="Взаимодействие с источниками данных" style="text;html=1;align=center;verticalAlign=middle;whiteSpace=wrap;rounded=0;" parent="1" vertex="1">
          <mxGeometry x="290" y="280" width="260" height="30" as="geometry" />
        </mxCell>
        <mxCell id="MCCsowOXcGhfkj3BE8WT-21" style="edgeStyle=orthogonalEdgeStyle;rounded=0;orthogonalLoop=1;jettySize=auto;html=1;exitX=0.5;exitY=1;exitDx=0;exitDy=0;entryX=0.5;entryY=0;entryDx=0;entryDy=0;startArrow=classic;startFill=1;" edge="1" parent="1" source="cZ6YBLn97wVf9UVjXB-H-27" target="MCCsowOXcGhfkj3BE8WT-6">
          <mxGeometry relative="1" as="geometry" />
        </mxCell>
        <mxCell id="cZ6YBLn97wVf9UVjXB-H-27" value="Модуль взаимодействия с Astrometry.net" style="rounded=0;whiteSpace=wrap;html=1;" parent="1" vertex="1">
          <mxGeometry x="340" y="320" width="173.63" height="30" as="geometry" />
        </mxCell>
        <mxCell id="cZ6YBLn97wVf9UVjXB-H-28" value="" style="endArrow=none;dashed=1;html=1;rounded=0;dashPattern=12 12;opacity=30;" parent="1" edge="1">
          <mxGeometry width="50" height="50" relative="1" as="geometry">
            <mxPoint y="390" as="sourcePoint" />
            <mxPoint x="730" y="390" as="targetPoint" />
          </mxGeometry>
        </mxCell>
        <mxCell id="cZ6YBLn97wVf9UVjXB-H-32" value="Данные" style="text;html=1;align=center;verticalAlign=middle;whiteSpace=wrap;rounded=0;" parent="1" vertex="1">
          <mxGeometry x="10" y="400" width="105" height="30" as="geometry" />
        </mxCell>
        <mxCell id="cZ6YBLn97wVf9UVjXB-H-39" value="Астрономические каталоги" style="rounded=0;whiteSpace=wrap;html=1;" parent="1" vertex="1">
          <mxGeometry x="135" y="400" width="180" height="30" as="geometry" />
        </mxCell>
        <mxCell id="MCCsowOXcGhfkj3BE8WT-1" value="Отображение результатов" style="rounded=0;whiteSpace=wrap;html=1;" vertex="1" parent="1">
          <mxGeometry x="140" y="90" width="235" height="30" as="geometry" />
        </mxCell>
        <mxCell id="MCCsowOXcGhfkj3BE8WT-5" value="Библиотека SEP&amp;nbsp;" style="rounded=0;whiteSpace=wrap;html=1;" vertex="1" parent="1">
          <mxGeometry x="540" y="400" width="165" height="30" as="geometry" />
        </mxCell>
        <mxCell id="MCCsowOXcGhfkj3BE8WT-6" value="API Astrometry" style="rounded=0;whiteSpace=wrap;html=1;" vertex="1" parent="1">
          <mxGeometry x="336.82" y="400" width="180" height="30" as="geometry" />
        </mxCell>
        <mxCell id="MCCsowOXcGhfkj3BE8WT-14" style="edgeStyle=orthogonalEdgeStyle;rounded=0;orthogonalLoop=1;jettySize=auto;html=1;exitX=0;exitY=0.5;exitDx=0;exitDy=0;" edge="1" parent="1" source="MCCsowOXcGhfkj3BE8WT-7" target="cZ6YBLn97wVf9UVjXB-H-10">
          <mxGeometry relative="1" as="geometry" />
        </mxCell>
        <mxCell id="MCCsowOXcGhfkj3BE8WT-29" style="edgeStyle=orthogonalEdgeStyle;rounded=0;orthogonalLoop=1;jettySize=auto;html=1;exitX=0.5;exitY=1;exitDx=0;exitDy=0;startArrow=classic;startFill=1;" edge="1" parent="1" source="MCCsowOXcGhfkj3BE8WT-7" target="MCCsowOXcGhfkj3BE8WT-27">
          <mxGeometry relative="1" as="geometry" />
        </mxCell>
        <mxCell id="MCCsowOXcGhfkj3BE8WT-7" value="Модуль обнаружения объектов" style="rounded=0;whiteSpace=wrap;html=1;" vertex="1" parent="1">
          <mxGeometry x="540" y="200" width="149.87" height="30" as="geometry" />
        </mxCell>
        <mxCell id="MCCsowOXcGhfkj3BE8WT-8" value="Модуль классификации космических объектов" style="rounded=0;whiteSpace=wrap;html=1;" vertex="1" parent="1">
          <mxGeometry x="145" y="200" width="180" height="30" as="geometry" />
        </mxCell>
        <mxCell id="MCCsowOXcGhfkj3BE8WT-16" style="edgeStyle=orthogonalEdgeStyle;rounded=0;orthogonalLoop=1;jettySize=auto;html=1;exitX=0.5;exitY=0;exitDx=0;exitDy=0;entryX=0.401;entryY=0.93;entryDx=0;entryDy=0;entryPerimeter=0;" edge="1" parent="1" source="MCCsowOXcGhfkj3BE8WT-8" target="MCCsowOXcGhfkj3BE8WT-1">
          <mxGeometry relative="1" as="geometry" />
        </mxCell>
        <mxCell id="MCCsowOXcGhfkj3BE8WT-17" value="Модуль запросов к астрономическим каталогам" style="rounded=0;whiteSpace=wrap;html=1;" vertex="1" parent="1">
          <mxGeometry x="145" y="320" width="169.94" height="30" as="geometry" />
        </mxCell>
        <mxCell id="MCCsowOXcGhfkj3BE8WT-23" style="edgeStyle=orthogonalEdgeStyle;rounded=0;orthogonalLoop=1;jettySize=auto;html=1;exitX=0.5;exitY=1;exitDx=0;exitDy=0;entryX=0.531;entryY=0.046;entryDx=0;entryDy=0;entryPerimeter=0;startArrow=classic;startFill=1;" edge="1" parent="1" source="MCCsowOXcGhfkj3BE8WT-8" target="MCCsowOXcGhfkj3BE8WT-17">
          <mxGeometry relative="1" as="geometry" />
        </mxCell>
        <mxCell id="MCCsowOXcGhfkj3BE8WT-24" style="edgeStyle=orthogonalEdgeStyle;rounded=0;orthogonalLoop=1;jettySize=auto;html=1;exitX=0.5;exitY=1;exitDx=0;exitDy=0;entryX=0.528;entryY=0.062;entryDx=0;entryDy=0;entryPerimeter=0;startArrow=classic;startFill=1;" edge="1" parent="1" source="MCCsowOXcGhfkj3BE8WT-17" target="cZ6YBLn97wVf9UVjXB-H-39">
          <mxGeometry relative="1" as="geometry" />
        </mxCell>
        <mxCell id="MCCsowOXcGhfkj3BE8WT-26" style="edgeStyle=orthogonalEdgeStyle;rounded=0;orthogonalLoop=1;jettySize=auto;html=1;exitX=0.5;exitY=1;exitDx=0;exitDy=0;entryX=0.542;entryY=0.048;entryDx=0;entryDy=0;entryPerimeter=0;startArrow=classic;startFill=1;" edge="1" parent="1" source="cZ6YBLn97wVf9UVjXB-H-10" target="cZ6YBLn97wVf9UVjXB-H-27">
          <mxGeometry relative="1" as="geometry" />
        </mxCell>
        <mxCell id="MCCsowOXcGhfkj3BE8WT-27" value="Модуль взаимодействия с SourceExatractor" style="rounded=0;whiteSpace=wrap;html=1;" vertex="1" parent="1">
          <mxGeometry x="540" y="320" width="149.87" height="30" as="geometry" />
        </mxCell>
        <mxCell id="MCCsowOXcGhfkj3BE8WT-28" style="edgeStyle=orthogonalEdgeStyle;rounded=0;orthogonalLoop=1;jettySize=auto;html=1;exitX=0.25;exitY=1;exitDx=0;exitDy=0;entryX=0.855;entryY=0.048;entryDx=0;entryDy=0;entryPerimeter=0;startArrow=classic;startFill=1;" edge="1" parent="1" source="MCCsowOXcGhfkj3BE8WT-7" target="cZ6YBLn97wVf9UVjXB-H-27">
          <mxGeometry relative="1" as="geometry" />
        </mxCell>
        <mxCell id="MCCsowOXcGhfkj3BE8WT-31" style="edgeStyle=orthogonalEdgeStyle;rounded=0;orthogonalLoop=1;jettySize=auto;html=1;exitX=0.5;exitY=1;exitDx=0;exitDy=0;entryX=0.455;entryY=0.026;entryDx=0;entryDy=0;entryPerimeter=0;startArrow=classic;startFill=1;" edge="1" parent="1" source="MCCsowOXcGhfkj3BE8WT-27" target="MCCsowOXcGhfkj3BE8WT-5">
          <mxGeometry relative="1" as="geometry" />
        </mxCell>
      </root>
    </mxGraphModel>
  </diagram>
</mxfile>
